<svg width="219" height="18" viewBox="0 0 219 18" fill="none" xmlns="http://www.w3.org/2000/svg">
    <path fill-rule="evenodd" clip-rule="evenodd" d="M8.16664 1.65862C8.2242 1.47609 8.33846 1.31666 8.49281 1.20349C8.64717 1.09031 8.83358 1.0293 9.02498 1.0293C9.21637 1.0293 9.40279 1.09031 9.55714 1.20349C9.71149 1.31666 9.82575 1.47609 9.88331 1.65862L11.4333 6.42529H16.4333C16.6315 6.41779 16.8268 6.47541 16.9892 6.58932C17.1516 6.70324 17.2723 6.86719 17.3327 7.05614C17.3932 7.24508 17.3902 7.44862 17.324 7.63567C17.2579 7.82271 17.1324 7.98297 16.9666 8.09196L12.9083 11.0336L14.4583 15.8086C14.5196 15.9905 14.5212 16.1872 14.4627 16.3701C14.4043 16.5529 14.2889 16.7122 14.1335 16.8249C13.9781 16.9375 13.7907 16.9975 13.5988 16.996C13.4068 16.9946 13.2204 16.9319 13.0666 16.817L8.99998 13.842L4.94164 16.792C4.7879 16.9069 4.60145 16.9696 4.40951 16.971C4.21758 16.9725 4.03022 16.9125 3.87479 16.7999C3.71936 16.6872 3.604 16.5279 3.54557 16.3451C3.48713 16.1622 3.48868 15.9655 3.54998 15.7836L5.09998 11.0086L1.04164 8.06696C0.875879 7.95797 0.750352 7.79771 0.684243 7.61067C0.618134 7.42363 0.615077 7.22008 0.675539 7.03114C0.736001 6.84219 0.856658 6.67824 1.01907 6.56432C1.18149 6.45041 1.37673 6.39279 1.57498 6.40029H6.57498L8.16664 1.65862Z" fill="#FBAD39"/>
    <path fill-rule="evenodd" clip-rule="evenodd" d="M30.1666 1.65862C30.2242 1.47609 30.3385 1.31666 30.4928 1.20349C30.6472 1.09031 30.8336 1.0293 31.025 1.0293C31.2164 1.0293 31.4028 1.09031 31.5571 1.20349C31.7115 1.31666 31.8257 1.47609 31.8833 1.65862L33.4333 6.42529H38.4333C38.6315 6.41779 38.8268 6.47541 38.9892 6.58932C39.1516 6.70324 39.2723 6.86719 39.3327 7.05614C39.3932 7.24508 39.3902 7.44862 39.324 7.63567C39.2579 7.82271 39.1324 7.98297 38.9666 8.09196L34.9083 11.0336L36.4583 15.8086C36.5196 15.9905 36.5212 16.1872 36.4627 16.3701C36.4043 16.5529 36.2889 16.7122 36.1335 16.8249C35.9781 16.9375 35.7907 16.9975 35.5988 16.996C35.4068 16.9946 35.2204 16.9319 35.0666 16.817L31 13.842L26.9416 16.792C26.7879 16.9069 26.6014 16.9696 26.4095 16.971C26.2176 16.9725 26.0302 16.9125 25.8748 16.7999C25.7194 16.6872 25.604 16.5279 25.5456 16.3451C25.4871 16.1622 25.4887 15.9655 25.55 15.7836L27.1 11.0086L23.0416 8.06696C22.8759 7.95797 22.7504 7.79771 22.6842 7.61067C22.6181 7.42363 22.6151 7.22008 22.6755 7.03114C22.736 6.84219 22.8567 6.67824 23.0191 6.56432C23.1815 6.45041 23.3767 6.39279 23.575 6.40029H28.575L30.1666 1.65862Z" fill="#FBAD39"/>
    <path fill-rule="evenodd" clip-rule="evenodd" d="M52.1666 1.65862C52.2242 1.47609 52.3385 1.31666 52.4928 1.20349C52.6472 1.09031 52.8336 1.0293 53.025 1.0293C53.2164 1.0293 53.4028 1.09031 53.5571 1.20349C53.7115 1.31666 53.8257 1.47609 53.8833 1.65862L55.4333 6.42529H60.4333C60.6315 6.41779 60.8268 6.47541 60.9892 6.58932C61.1516 6.70324 61.2723 6.86719 61.3327 7.05614C61.3932 7.24508 61.3902 7.44862 61.324 7.63567C61.2579 7.82271 61.1324 7.98297 60.9666 8.09196L56.9083 11.0336L58.4583 15.8086C58.5196 15.9905 58.5212 16.1872 58.4627 16.3701C58.4043 16.5529 58.2889 16.7122 58.1335 16.8249C57.9781 16.9375 57.7907 16.9975 57.5988 16.996C57.4068 16.9946 57.2204 16.9319 57.0666 16.817L53 13.842L48.9416 16.792C48.7879 16.9069 48.6014 16.9696 48.4095 16.971C48.2176 16.9725 48.0302 16.9125 47.8748 16.7999C47.7194 16.6872 47.604 16.5279 47.5456 16.3451C47.4871 16.1622 47.4887 15.9655 47.55 15.7836L49.1 11.0086L45.0416 8.06696C44.8759 7.95797 44.7504 7.79771 44.6842 7.61067C44.6181 7.42363 44.6151 7.22008 44.6755 7.03114C44.736 6.84219 44.8567 6.67824 45.0191 6.56432C45.1815 6.45041 45.3767 6.39279 45.575 6.40029H50.575L52.1666 1.65862Z" fill="#FBAD39"/>
    <path fill-rule="evenodd" clip-rule="evenodd" d="M74.1666 1.65862C74.2242 1.47609 74.3385 1.31666 74.4928 1.20349C74.6472 1.09031 74.8336 1.0293 75.025 1.0293C75.2164 1.0293 75.4028 1.09031 75.5571 1.20349C75.7115 1.31666 75.8257 1.47609 75.8833 1.65862L77.4333 6.42529H82.4333C82.6315 6.41779 82.8268 6.47541 82.9892 6.58932C83.1516 6.70324 83.2723 6.86719 83.3327 7.05614C83.3932 7.24508 83.3902 7.44862 83.324 7.63567C83.2579 7.82271 83.1324 7.98297 82.9666 8.09196L78.9083 11.0336L80.4583 15.8086C80.5196 15.9905 80.5212 16.1872 80.4627 16.3701C80.4043 16.5529 80.2889 16.7122 80.1335 16.8249C79.9781 16.9375 79.7907 16.9975 79.5988 16.996C79.4068 16.9946 79.2204 16.9319 79.0666 16.817L75 13.842L70.9416 16.792C70.7879 16.9069 70.6014 16.9696 70.4095 16.971C70.2176 16.9725 70.0302 16.9125 69.8748 16.7999C69.7194 16.6872 69.604 16.5279 69.5456 16.3451C69.4871 16.1622 69.4887 15.9655 69.55 15.7836L71.1 11.0086L67.0416 8.06696C66.8759 7.95797 66.7504 7.79771 66.6842 7.61067C66.6181 7.42363 66.6151 7.22008 66.6755 7.03114C66.736 6.84219 66.8567 6.67824 67.0191 6.56432C67.1815 6.45041 67.3767 6.39279 67.575 6.40029H72.575L74.1666 1.65862Z" fill="#FBAD39"/>
    <path fill-rule="evenodd" clip-rule="evenodd" d="M96.1666 1.65862C96.2242 1.47609 96.3385 1.31666 96.4928 1.20349C96.6472 1.09031 96.8336 1.0293 97.025 1.0293C97.2164 1.0293 97.4028 1.09031 97.5571 1.20349C97.7115 1.31666 97.8257 1.47609 97.8833 1.65862L99.4333 6.42529H104.433C104.632 6.41779 104.827 6.47541 104.989 6.58932C105.152 6.70324 105.272 6.86719 105.333 7.05614C105.393 7.24508 105.39 7.44862 105.324 7.63567C105.258 7.82271 105.132 7.98297 104.967 8.09196L100.908 11.0336L102.458 15.8086C102.52 15.9905 102.521 16.1872 102.463 16.3701C102.404 16.5529 102.289 16.7122 102.133 16.8249C101.978 16.9375 101.791 16.9975 101.599 16.996C101.407 16.9946 101.22 16.9319 101.067 16.817L97 13.842L92.9416 16.792C92.7879 16.9069 92.6014 16.9696 92.4095 16.971C92.2176 16.9725 92.0302 16.9125 91.8748 16.7999C91.7194 16.6872 91.604 16.5279 91.5456 16.3451C91.4871 16.1622 91.4887 15.9655 91.55 15.7836L93.1 11.0086L89.0416 8.06696C88.8759 7.95797 88.7504 7.79771 88.6842 7.61067C88.6181 7.42363 88.6151 7.22008 88.6755 7.03114C88.736 6.84219 88.8567 6.67824 89.0191 6.56432C89.1815 6.45041 89.3767 6.39279 89.575 6.40029H94.575L96.1666 1.65862Z" stroke="#C3D4E9" stroke-width="1.5" stroke-linecap="round" stroke-linejoin="round"/>
    <path d="M120.726 15V12.592H115.602V11.458L120.698 4.57H122.014V11.458H123.372V12.592H122.014V15H120.726ZM116.638 11.948L116.442 11.458H120.726V5.718L121.132 5.83L116.638 11.948ZM129.934 15V12.592H124.81V11.458L129.906 4.57H131.222V11.458H132.58V12.592H131.222V15H129.934ZM125.846 11.948L125.65 11.458H129.934V5.718L130.34 5.83L125.846 11.948ZM138.497 15.168C137.667 15.168 136.939 14.944 136.313 14.496C135.697 14.0387 135.217 13.4087 134.871 12.606C134.526 11.794 134.353 10.8513 134.353 9.778C134.353 8.70467 134.526 7.76667 134.871 6.964C135.217 6.152 135.697 5.522 136.313 5.074C136.929 4.626 137.653 4.402 138.483 4.402C139.314 4.402 140.037 4.626 140.653 5.074C141.269 5.522 141.75 6.152 142.095 6.964C142.45 7.76667 142.627 8.70467 142.627 9.778C142.627 10.8513 142.455 11.794 142.109 12.606C141.764 13.418 141.279 14.048 140.653 14.496C140.037 14.944 139.319 15.168 138.497 15.168ZM138.497 13.894C139.057 13.894 139.543 13.726 139.953 13.39C140.364 13.0447 140.681 12.564 140.905 11.948C141.139 11.332 141.255 10.6087 141.255 9.778C141.255 8.94733 141.139 8.224 140.905 7.608C140.681 6.992 140.359 6.516 139.939 6.18C139.529 5.844 139.043 5.676 138.483 5.676C137.923 5.676 137.438 5.844 137.027 6.18C136.617 6.516 136.295 6.992 136.061 7.608C135.837 8.224 135.725 8.94733 135.725 9.778C135.725 10.5993 135.837 11.318 136.061 11.934C136.295 12.55 136.617 13.0307 137.027 13.376C137.447 13.7213 137.937 13.894 138.497 13.894ZM147.592 15V12.102H144.694V10.884H147.592V8H148.81V10.884H151.694V12.102H148.81V15H147.592ZM156.705 15V4.57H160.387C161.077 4.57 161.684 4.70067 162.207 4.962C162.729 5.22333 163.135 5.59667 163.425 6.082C163.723 6.56733 163.873 7.13667 163.873 7.79C163.873 8.52733 163.686 9.15267 163.313 9.666C162.939 10.1793 162.435 10.548 161.801 10.772L164.223 15H162.627L160.079 10.478L160.989 11.01H158.077V15H156.705ZM158.077 9.75H160.429C160.839 9.75 161.199 9.67067 161.507 9.512C161.815 9.35333 162.053 9.12467 162.221 8.826C162.398 8.52733 162.487 8.182 162.487 7.79C162.487 7.38867 162.398 7.04333 162.221 6.754C162.053 6.45533 161.815 6.22667 161.507 6.068C161.199 5.90933 160.839 5.83 160.429 5.83H158.077V9.75ZM168.957 15.168C168.229 15.168 167.58 14.9953 167.011 14.65C166.442 14.3047 165.994 13.8333 165.667 13.236C165.34 12.6293 165.177 11.9527 165.177 11.206C165.177 10.45 165.336 9.778 165.653 9.19C165.98 8.602 166.418 8.14 166.969 7.804C167.529 7.45867 168.154 7.286 168.845 7.286C169.405 7.286 169.9 7.38867 170.329 7.594C170.768 7.79 171.136 8.06067 171.435 8.406C171.743 8.742 171.976 9.12933 172.135 9.568C172.303 9.99733 172.387 10.4453 172.387 10.912C172.387 11.0147 172.378 11.1313 172.359 11.262C172.35 11.3833 172.336 11.5 172.317 11.612H166.129V10.492H171.561L170.945 10.996C171.029 10.5107 170.982 10.0767 170.805 9.694C170.628 9.31133 170.366 9.008 170.021 8.784C169.676 8.56 169.284 8.448 168.845 8.448C168.406 8.448 168.005 8.56 167.641 8.784C167.277 9.008 166.992 9.33 166.787 9.75C166.591 10.1607 166.512 10.6507 166.549 11.22C166.512 11.7707 166.596 12.256 166.801 12.676C167.016 13.0867 167.314 13.4087 167.697 13.642C168.089 13.866 168.514 13.978 168.971 13.978C169.475 13.978 169.9 13.8613 170.245 13.628C170.59 13.3947 170.87 13.096 171.085 12.732L172.177 13.292C172.028 13.6373 171.794 13.9547 171.477 14.244C171.169 14.524 170.8 14.748 170.371 14.916C169.951 15.084 169.48 15.168 168.957 15.168ZM176.328 15L173.374 7.454H174.83L177.196 13.838H176.692L179.072 7.454H180.528L177.56 15H176.328ZM181.973 15V7.454H183.275V15H181.973ZM181.973 6.25V4.57H183.275V6.25H181.973ZM189.047 15.168C188.319 15.168 187.67 14.9953 187.101 14.65C186.532 14.3047 186.084 13.8333 185.757 13.236C185.43 12.6293 185.267 11.9527 185.267 11.206C185.267 10.45 185.426 9.778 185.743 9.19C186.07 8.602 186.508 8.14 187.059 7.804C187.619 7.45867 188.244 7.286 188.935 7.286C189.495 7.286 189.99 7.38867 190.419 7.594C190.858 7.79 191.226 8.06067 191.525 8.406C191.833 8.742 192.066 9.12933 192.225 9.568C192.393 9.99733 192.477 10.4453 192.477 10.912C192.477 11.0147 192.468 11.1313 192.449 11.262C192.44 11.3833 192.426 11.5 192.407 11.612H186.219V10.492H191.651L191.035 10.996C191.119 10.5107 191.072 10.0767 190.895 9.694C190.718 9.31133 190.456 9.008 190.111 8.784C189.766 8.56 189.374 8.448 188.935 8.448C188.496 8.448 188.095 8.56 187.731 8.784C187.367 9.008 187.082 9.33 186.877 9.75C186.681 10.1607 186.602 10.6507 186.639 11.22C186.602 11.7707 186.686 12.256 186.891 12.676C187.106 13.0867 187.404 13.4087 187.787 13.642C188.179 13.866 188.604 13.978 189.061 13.978C189.565 13.978 189.99 13.8613 190.335 13.628C190.68 13.3947 190.96 13.096 191.175 12.732L192.267 13.292C192.118 13.6373 191.884 13.9547 191.567 14.244C191.259 14.524 190.89 14.748 190.461 14.916C190.041 15.084 189.57 15.168 189.047 15.168ZM196.19 15L193.6 7.454H195.042L197.1 13.768L196.596 13.754L198.612 7.454H199.844L201.86 13.754L201.356 13.768L203.428 7.454H204.856L202.266 15H201.02L199.032 8.7H199.424L197.436 15H196.19ZM209.636 15.168C208.908 15.168 208.26 14.9953 207.69 14.65C207.121 14.3047 206.673 13.8333 206.346 13.236C206.02 12.6293 205.856 11.9527 205.856 11.206C205.856 10.45 206.015 9.778 206.332 9.19C206.659 8.602 207.098 8.14 207.648 7.804C208.208 7.45867 208.834 7.286 209.524 7.286C210.084 7.286 210.579 7.38867 211.008 7.594C211.447 7.79 211.816 8.06067 212.114 8.406C212.422 8.742 212.656 9.12933 212.814 9.568C212.982 9.99733 213.066 10.4453 213.066 10.912C213.066 11.0147 213.057 11.1313 213.038 11.262C213.029 11.3833 213.015 11.5 212.996 11.612H206.808V10.492H212.24L211.624 10.996C211.708 10.5107 211.662 10.0767 211.484 9.694C211.307 9.31133 211.046 9.008 210.7 8.784C210.355 8.56 209.963 8.448 209.524 8.448C209.086 8.448 208.684 8.56 208.32 8.784C207.956 9.008 207.672 9.33 207.466 9.75C207.27 10.1607 207.191 10.6507 207.228 11.22C207.191 11.7707 207.275 12.256 207.48 12.676C207.695 13.0867 207.994 13.4087 208.376 13.642C208.768 13.866 209.193 13.978 209.65 13.978C210.154 13.978 210.579 13.8613 210.924 13.628C211.27 13.3947 211.55 13.096 211.764 12.732L212.856 13.292C212.707 13.6373 212.474 13.9547 212.156 14.244C211.848 14.524 211.48 14.748 211.05 14.916C210.63 15.084 210.159 15.168 209.636 15.168ZM215.044 15V7.454H216.318V8.84L216.178 8.644C216.355 8.21467 216.626 7.89733 216.99 7.692C217.354 7.47733 217.797 7.37 218.32 7.37H218.782V8.602H218.124C217.592 8.602 217.162 8.77 216.836 9.106C216.509 9.43267 216.346 9.89933 216.346 10.506V15H215.044Z" fill="#3D5278"/>
</svg>
