<svg width="107" height="18" viewBox="0 0 107 18" fill="none" xmlns="http://www.w3.org/2000/svg">
    <path fill-rule="evenodd" clip-rule="evenodd" d="M8.16664 1.65862C8.22421 1.47609 8.33846 1.31666 8.49281 1.20349C8.64717 1.09031 8.83358 1.0293 9.02498 1.0293C9.21637 1.0293 9.40279 1.09031 9.55714 1.20349C9.71149 1.31666 9.82575 1.47609 9.88331 1.65862L11.4333 6.42529H16.4333C16.6315 6.41779 16.8268 6.47541 16.9892 6.58932C17.1516 6.70324 17.2723 6.86719 17.3327 7.05614C17.3932 7.24508 17.3902 7.44862 17.324 7.63567C17.2579 7.82271 17.1324 7.98297 16.9666 8.09196L12.9083 11.0336L14.4583 15.8086C14.5196 15.9905 14.5212 16.1872 14.4627 16.3701C14.4043 16.5529 14.2889 16.7122 14.1335 16.8249C13.9781 16.9375 13.7907 16.9975 13.5988 16.996C13.4068 16.9946 13.2204 16.9319 13.0666 16.817L8.99998 13.842L4.94164 16.792C4.7879 16.9069 4.60145 16.9696 4.40951 16.971C4.21758 16.9725 4.03022 16.9125 3.87479 16.7999C3.71936 16.6872 3.604 16.5279 3.54557 16.3451C3.48713 16.1622 3.48868 15.9655 3.54998 15.7836L5.09998 11.0086L1.04164 8.06696C0.875879 7.95797 0.750352 7.79771 0.684243 7.61067C0.618134 7.42362 0.615077 7.22008 0.675539 7.03114C0.736001 6.84219 0.856658 6.67824 1.01907 6.56432C1.18149 6.45041 1.37673 6.39279 1.57498 6.40029H6.57498L8.16664 1.65862Z" fill="#FBAD39"/>
    <path fill-rule="evenodd" clip-rule="evenodd" d="M30.1666 1.65862C30.2242 1.47609 30.3385 1.31666 30.4928 1.20349C30.6472 1.09031 30.8336 1.0293 31.025 1.0293C31.2164 1.0293 31.4028 1.09031 31.5571 1.20349C31.7115 1.31666 31.8257 1.47609 31.8833 1.65862L33.4333 6.42529H38.4333C38.6315 6.41779 38.8268 6.47541 38.9892 6.58932C39.1516 6.70324 39.2723 6.86719 39.3327 7.05614C39.3932 7.24508 39.3902 7.44862 39.324 7.63567C39.2579 7.82271 39.1324 7.98297 38.9666 8.09196L34.9083 11.0336L36.4583 15.8086C36.5196 15.9905 36.5212 16.1872 36.4627 16.3701C36.4043 16.5529 36.2889 16.7122 36.1335 16.8249C35.9781 16.9375 35.7907 16.9975 35.5988 16.996C35.4068 16.9946 35.2204 16.9319 35.0666 16.817L31 13.842L26.9416 16.792C26.7879 16.9069 26.6014 16.9696 26.4095 16.971C26.2176 16.9725 26.0302 16.9125 25.8748 16.7999C25.7194 16.6872 25.604 16.5279 25.5456 16.3451C25.4871 16.1622 25.4887 15.9655 25.55 15.7836L27.1 11.0086L23.0416 8.06696C22.8759 7.95797 22.7504 7.79771 22.6842 7.61067C22.6181 7.42362 22.6151 7.22008 22.6755 7.03114C22.736 6.84219 22.8567 6.67824 23.0191 6.56432C23.1815 6.45041 23.3767 6.39279 23.575 6.40029H28.575L30.1666 1.65862Z" fill="#FBAD39"/>
    <path fill-rule="evenodd" clip-rule="evenodd" d="M52.1666 1.65862C52.2242 1.47609 52.3385 1.31666 52.4928 1.20349C52.6472 1.09031 52.8336 1.0293 53.025 1.0293C53.2164 1.0293 53.4028 1.09031 53.5571 1.20349C53.7115 1.31666 53.8257 1.47609 53.8833 1.65862L55.4333 6.42529H60.4333C60.6315 6.41779 60.8268 6.47541 60.9892 6.58932C61.1516 6.70324 61.2723 6.86719 61.3327 7.05614C61.3932 7.24508 61.3902 7.44862 61.324 7.63567C61.2579 7.82271 61.1324 7.98297 60.9666 8.09196L56.9083 11.0336L58.4583 15.8086C58.5196 15.9905 58.5212 16.1872 58.4627 16.3701C58.4043 16.5529 58.2889 16.7122 58.1335 16.8249C57.9781 16.9375 57.7907 16.9975 57.5988 16.996C57.4068 16.9946 57.2204 16.9319 57.0666 16.817L53 13.842L48.9416 16.792C48.7879 16.9069 48.6014 16.9696 48.4095 16.971C48.2176 16.9725 48.0302 16.9125 47.8748 16.7999C47.7194 16.6872 47.604 16.5279 47.5456 16.3451C47.4871 16.1622 47.4887 15.9655 47.55 15.7836L49.1 11.0086L45.0416 8.06696C44.8759 7.95797 44.7504 7.79771 44.6842 7.61067C44.6181 7.42362 44.6151 7.22008 44.6755 7.03114C44.736 6.84219 44.8567 6.67824 45.0191 6.56432C45.1815 6.45041 45.3767 6.39279 45.575 6.40029H50.575L52.1666 1.65862Z" fill="#FBAD39"/>
    <path fill-rule="evenodd" clip-rule="evenodd" d="M74.1666 1.65862C74.2242 1.47609 74.3385 1.31666 74.4928 1.20349C74.6472 1.09031 74.8336 1.0293 75.025 1.0293C75.2164 1.0293 75.4028 1.09031 75.5571 1.20349C75.7115 1.31666 75.8257 1.47609 75.8833 1.65862L77.4333 6.42529H82.4333C82.6315 6.41779 82.8268 6.47541 82.9892 6.58932C83.1516 6.70324 83.2723 6.86719 83.3327 7.05614C83.3932 7.24508 83.3902 7.44862 83.324 7.63567C83.2579 7.82271 83.1324 7.98297 82.9666 8.09196L78.9083 11.0336L80.4583 15.8086C80.5196 15.9905 80.5212 16.1872 80.4627 16.3701C80.4043 16.5529 80.2889 16.7122 80.1335 16.8249C79.9781 16.9375 79.7907 16.9975 79.5988 16.996C79.4068 16.9946 79.2204 16.9319 79.0666 16.817L75 13.842L70.9416 16.792C70.7879 16.9069 70.6014 16.9696 70.4095 16.971C70.2176 16.9725 70.0302 16.9125 69.8748 16.7999C69.7194 16.6872 69.604 16.5279 69.5456 16.3451C69.4871 16.1622 69.4887 15.9655 69.55 15.7836L71.1 11.0086L67.0416 8.06696C66.8759 7.95797 66.7504 7.79771 66.6842 7.61067C66.6181 7.42362 66.6151 7.22008 66.6755 7.03114C66.736 6.84219 66.8567 6.67824 67.0191 6.56432C67.1815 6.45041 67.3767 6.39279 67.575 6.40029H72.575L74.1666 1.65862Z" fill="#FBAD39"/>
    <path fill-rule="evenodd" clip-rule="evenodd" d="M96.1666 1.65862C96.2242 1.47609 96.3385 1.31666 96.4928 1.20349C96.6472 1.09031 96.8336 1.0293 97.025 1.0293C97.2164 1.0293 97.4028 1.09031 97.5571 1.20349C97.7115 1.31666 97.8257 1.47609 97.8833 1.65862L99.4333 6.42529H104.433C104.632 6.41779 104.827 6.47541 104.989 6.58932C105.152 6.70324 105.272 6.86719 105.333 7.05614C105.393 7.24508 105.39 7.44862 105.324 7.63567C105.258 7.82271 105.132 7.98297 104.967 8.09196L100.908 11.0336L102.458 15.8086C102.52 15.9905 102.521 16.1872 102.463 16.3701C102.404 16.5529 102.289 16.7122 102.133 16.8249C101.978 16.9375 101.791 16.9975 101.599 16.996C101.407 16.9946 101.22 16.9319 101.067 16.817L97 13.842L92.9416 16.792C92.7879 16.9069 92.6014 16.9696 92.4095 16.971C92.2176 16.9725 92.0302 16.9125 91.8748 16.7999C91.7194 16.6872 91.604 16.5279 91.5456 16.3451C91.4871 16.1622 91.4887 15.9655 91.55 15.7836L93.1 11.0086L89.0416 8.06696C88.8759 7.95797 88.7504 7.79771 88.6842 7.61067C88.6181 7.42363 88.6151 7.22008 88.6755 7.03114C88.736 6.84219 88.8567 6.67824 89.0191 6.56432C89.1815 6.45041 89.3767 6.39279 89.575 6.40029H94.575L96.1666 1.65862Z" stroke="#C3D4E9" stroke-width="1.5" stroke-linecap="round" stroke-linejoin="round"/>
</svg>
