<svg width="91" height="16" viewBox="0 0 91 16" fill="none" xmlns="http://www.w3.org/2000/svg">
    <path d="M5.68925 15.192C4.94258 15.192 4.24925 15.0533 3.60925 14.776C2.96925 14.488 2.42525 14.0987 1.97725 13.608C1.52925 13.1173 1.19858 12.552 0.98525 11.912L2.58525 11.24C2.87325 11.976 3.29458 12.5413 3.84925 12.936C4.40392 13.3307 5.04392 13.528 5.76925 13.528C6.19592 13.528 6.56925 13.464 6.88925 13.336C7.20925 13.1973 7.45458 13.0053 7.62525 12.76C7.80658 12.5147 7.89725 12.232 7.89725 11.912C7.89725 11.4747 7.77458 11.128 7.52925 10.872C7.28392 10.616 6.92125 10.4133 6.44125 10.264L4.20125 9.56C3.30525 9.28267 2.62258 8.86133 2.15325 8.296C1.68392 7.72 1.44925 7.048 1.44925 6.28C1.44925 5.608 1.61458 5.02133 1.94525 4.52C2.27592 4.008 2.72925 3.608 3.30525 3.32C3.89192 3.032 4.55858 2.888 5.30525 2.888C6.01992 2.888 6.67058 3.016 7.25725 3.272C7.84392 3.51733 8.34525 3.85867 8.76125 4.296C9.18792 4.73333 9.49725 5.24 9.68925 5.816L8.12125 6.504C7.88658 5.87467 7.51858 5.38933 7.01725 5.048C6.52658 4.70667 5.95592 4.536 5.30525 4.536C4.91058 4.536 4.56392 4.60533 4.26525 4.744C3.96658 4.872 3.73192 5.064 3.56125 5.32C3.40125 5.56533 3.32125 5.85333 3.32125 6.184C3.32125 6.568 3.44392 6.90933 3.68925 7.208C3.93458 7.50667 4.30792 7.73067 4.80925 7.88L6.88925 8.536C7.83858 8.824 8.55325 9.24 9.03325 9.784C9.51325 10.3173 9.75325 10.984 9.75325 11.784C9.75325 12.4453 9.57725 13.032 9.22525 13.544C8.88392 14.056 8.40925 14.4613 7.80125 14.76C7.19325 15.048 6.48925 15.192 5.68925 15.192ZM11.6966 15V2.888H13.5046V8.04L13.2166 7.816C13.43 7.272 13.7713 6.86133 14.2406 6.584C14.71 6.296 15.254 6.152 15.8726 6.152C16.5126 6.152 17.078 6.29067 17.5686 6.568C18.0593 6.84533 18.4433 7.22933 18.7206 7.72C18.998 8.21067 19.1366 8.77067 19.1366 9.4V15H17.3446V9.896C17.3446 9.45867 17.2593 9.09067 17.0886 8.792C16.9286 8.48267 16.7046 8.248 16.4166 8.088C16.1286 7.91733 15.798 7.832 15.4246 7.832C15.062 7.832 14.7313 7.91733 14.4326 8.088C14.1446 8.248 13.9153 8.48267 13.7446 8.792C13.5846 9.10133 13.5046 9.46933 13.5046 9.896V15H11.6966ZM25.2476 15.192C24.4156 15.192 23.653 14.9947 22.9596 14.6C22.277 14.2053 21.733 13.6667 21.3276 12.984C20.9223 12.3013 20.7196 11.528 20.7196 10.664C20.7196 9.78933 20.9223 9.016 21.3276 8.344C21.733 7.66133 22.277 7.128 22.9596 6.744C23.6423 6.34933 24.405 6.152 25.2476 6.152C26.101 6.152 26.8636 6.34933 27.5356 6.744C28.2183 7.128 28.757 7.66133 29.1516 8.344C29.557 9.016 29.7596 9.78933 29.7596 10.664C29.7596 11.5387 29.557 12.3173 29.1516 13C28.7463 13.6827 28.2023 14.2213 27.5196 14.616C26.837 15 26.0796 15.192 25.2476 15.192ZM25.2476 13.512C25.7596 13.512 26.213 13.3893 26.6076 13.144C27.0023 12.8987 27.3116 12.5627 27.5356 12.136C27.7703 11.6987 27.8876 11.208 27.8876 10.664C27.8876 10.12 27.7703 9.63467 27.5356 9.208C27.3116 8.78133 27.0023 8.44533 26.6076 8.2C26.213 7.95467 25.7596 7.832 25.2476 7.832C24.7463 7.832 24.293 7.95467 23.8876 8.2C23.493 8.44533 23.1783 8.78133 22.9436 9.208C22.7196 9.63467 22.6076 10.12 22.6076 10.664C22.6076 11.208 22.7196 11.6987 22.9436 12.136C23.1783 12.5627 23.493 12.8987 23.8876 13.144C24.293 13.3893 24.7463 13.512 25.2476 13.512ZM33.4645 15L30.4885 6.344H32.4085L34.6805 13.24H34.0085L36.3285 6.344H37.9765L40.2805 13.24H39.6085L41.8965 6.344H43.8165L40.8245 15H39.1925L36.8565 7.944H37.4485L35.1125 15H33.4645ZM46.9729 15L51.1649 3.08H53.5009L57.6929 15H55.6769L54.7649 12.328H49.9169L48.9889 15H46.9729ZM50.4609 10.648H54.1889L52.0769 4.408H52.6049L50.4609 10.648ZM58.931 15V2.888H60.739V15H58.931ZM62.8529 15V2.888H64.6609V15H62.8529Z" fill="#90A3BF"/>
    <path d="M83.0003 11.1994C82.5336 11.1994 82.0669 11.0194 81.7136 10.6661L77.3669 6.31944C77.1736 6.12611 77.1736 5.80611 77.3669 5.61277C77.5603 5.41944 77.8803 5.41944 78.0736 5.61277L82.4203 9.95944C82.7403 10.2794 83.2603 10.2794 83.5803 9.95944L87.9269 5.61277C88.1203 5.41944 88.4403 5.41944 88.6336 5.61277C88.8269 5.80611 88.8269 6.12611 88.6336 6.31944L84.2869 10.6661C83.9336 11.0194 83.4669 11.1994 83.0003 11.1994Z" fill="#90A3BF" stroke="#90A3BF" stroke-width="0.5"/>
</svg>
